<svg width="21" height="12" viewBox="0 0 21 12" fill="none" xmlns="http://www.w3.org/2000/svg">
<path d="M6.01596 4.90304C9.14551 4.90304 11.0174 4.90304 11.6316 4.90304C11.8363 5.98522 11.7925 7.03815 11.5 8.06183C11.2075 9.05627 10.6957 9.88984 9.96445 10.5625C9.29175 11.1768 8.4728 11.6008 7.50762 11.8348C6.45468 12.0688 5.431 12.0542 4.43657 11.791C3.64687 11.5862 2.93029 11.2206 2.28683 10.6942C1.58488 10.1384 1.04379 9.48036 0.663566 8.71991C0.0201081 7.4915 -0.15538 6.18996 0.1371 4.8153C0.224845 4.28883 0.400333 3.79161 0.663566 3.32364C1.36552 1.86124 2.49157 0.866807 4.04172 0.340341C5.38713 -0.127628 6.73254 -0.113004 8.07795 0.384213C8.77991 0.647446 9.42336 1.04229 10.0083 1.56876C9.94983 1.6565 9.84746 1.7735 9.70122 1.91974C9.55498 2.03673 9.46724 2.12447 9.43799 2.18297C9.321 2.27071 9.13088 2.4462 8.86765 2.70944C8.63367 2.94342 8.45818 3.13353 8.34119 3.27977C7.96096 2.89955 7.52224 2.63632 7.02502 2.49007C6.44006 2.31459 5.8551 2.29996 5.27014 2.4462C4.56818 2.59244 3.9686 2.91417 3.47138 3.41139C3.09116 3.82086 2.79868 4.30346 2.59394 4.85917C2.33071 5.61962 2.33071 6.39469 2.59394 7.18439C2.85717 7.94484 3.32514 8.55905 3.99785 9.02702C4.40732 9.3195 4.84604 9.50961 5.31401 9.59736C5.75273 9.6851 6.23532 9.6851 6.76179 9.59736C7.25901 9.50961 7.69773 9.33412 8.07795 9.07089C8.75066 8.63217 9.14551 8.01796 9.2625 7.22826C8.18032 7.22826 7.09814 7.22826 6.01596 7.22826C6.01596 7.05277 6.01596 6.67255 6.01596 6.08759C6.01596 5.47338 6.01596 5.07853 6.01596 4.90304ZM18.7389 5.03466V6.52631H16.6769V8.54443H15.1852V6.52631H13.1232V5.03466H15.1852V2.97267H16.6769V5.03466H18.7389Z" fill="#142535"/>
</svg>