<svg width="16" height="15" viewBox="0 0 16 15" fill="none" xmlns="http://www.w3.org/2000/svg">
<g clipPath="url(#clip0_712_441)">
<path d="M14.6249 3.43262H1.5249V9.28288H14.6249V3.43262Z" fill="white"/>
<path d="M6.3085 5.53775L5.8475 6.83831H6.768L6.3085 5.53775ZM6.3085 5.53775L5.8475 6.83831H6.768L6.3085 5.53775ZM8 0C3.5825 0 0 2.80463 0 6.26478C0 8.50339 1.4965 10.4655 3.75 11.574C2.6315 15.4067 1.974 15.6572 6.579 12.4321C7.05 12.4986 7.5245 12.5316 8 12.5311C12.4175 12.5311 16 9.72494 16 6.26478C16 2.80463 12.4175 0 8 0ZM3.5765 8.45288C2.778 8.45288 3.249 7.34883 3.1155 5.29224C2.8245 5.24274 1.9415 5.49025 1.9415 4.84272C1.943 4.59421 2.1455 4.3937 2.394 4.3947C4.0725 4.5142 5.21 4.08218 5.21 4.84272C5.21 5.50175 4.3605 5.23674 4.0375 5.29224C3.9035 7.34183 4.3735 8.45288 3.5765 8.45288ZM7.917 8.38288C7.2 8.70889 7.1825 7.97436 7.011 7.65535H5.6045C5.4315 7.98136 5.417 8.7144 4.6985 8.38288C4.159 8.13537 5.0375 6.88031 5.6935 4.84522C5.803 4.5057 6.167 4.3197 6.5065 4.4292C6.704 4.4932 6.8585 4.64771 6.9225 4.84522C7.5915 6.91931 8.4595 8.13537 7.917 8.38288ZM8.7695 8.38288C7.997 8.38288 8.467 7.33983 8.333 4.84822C8.333 4.24169 9.2755 4.24319 9.2755 4.84822V7.54484C9.7205 7.60434 10.698 7.32533 10.698 7.96536C10.692 8.64189 9.642 8.29988 8.7695 8.38588V8.38288ZM13.037 8.25037L11.955 6.82481L11.795 6.98482V7.98686C11.795 8.24087 11.589 8.44638 11.3355 8.44638H11.3325C10.531 8.44638 11.011 7.29133 10.8715 4.85072C10.873 4.59721 11.079 4.3927 11.3325 4.3927C12.029 4.3927 11.728 5.37724 11.7935 5.83727C13.1025 4.58771 13.069 4.4552 13.338 4.4552C13.709 4.4552 13.936 4.91622 13.6885 5.16073L12.637 6.20528L13.773 7.70085C14.144 8.18537 13.4035 8.7379 13.037 8.25337V8.25037ZM5.8475 6.83831H6.768L6.3085 5.53775L5.8475 6.83831ZM6.3085 5.53775L5.8475 6.83831H6.768L6.3085 5.53775ZM6.3085 5.53775L5.8475 6.83831H6.768L6.3085 5.53775Z" fill="#142535"/>
</g>
<defs>
<clipPath id="clip0_712_441">
<rect width="16" height="14.6667" fill="white"/>
</clipPath>
</defs>
</svg>
